<mxfile host="app.diagrams.net" modified="2023-11-02T14:42:52.838Z" agent="Mozilla/5.0 (Windows NT 10.0; Win64; x64) AppleWebKit/537.36 (KHTML, like Gecko) Chrome/118.0.0.0 Safari/537.36" etag="aejWRbh5CvZGkeC-qVb-" version="22.0.8" type="github" pages="2">
  <diagram name="페이지-1" id="ylLfvujrxQ4OcKe9-wFL">
    <mxGraphModel dx="1241" dy="1041" grid="1" gridSize="10" guides="1" tooltips="1" connect="1" arrows="1" fold="1" page="1" pageScale="1" pageWidth="827" pageHeight="1169" math="0" shadow="0">
      <root>
        <mxCell id="0" />
        <mxCell id="1" parent="0" />
      </root>
    </mxGraphModel>
  </diagram>
  <diagram id="0fQta9XmslQbLuA9B68D" name="MSA-PLAN1">
    <mxGraphModel dx="2250" dy="2322" grid="1" gridSize="10" guides="1" tooltips="1" connect="1" arrows="1" fold="1" page="1" pageScale="1" pageWidth="827" pageHeight="1169" math="0" shadow="0">
      <root>
        <mxCell id="0" />
        <mxCell id="1" parent="0" />
        <mxCell id="_q4iehMltZ5T4as94G1Y-2" value="HOST" style="rounded=1;whiteSpace=wrap;html=1;container=1;collapsible=0;fillColor=none;dashed=1;imageAspect=1;absoluteArcSize=1;verticalAlign=bottom;labelPosition=center;verticalLabelPosition=top;align=center;recursiveResize=0;" vertex="1" parent="1">
          <mxGeometry x="-40" y="80" width="360" height="390" as="geometry" />
        </mxCell>
        <mxCell id="_q4iehMltZ5T4as94G1Y-4" value="" style="image;sketch=0;aspect=fixed;html=1;points=[];align=center;fontSize=12;image=img/lib/mscae/Docker.svg;" vertex="1" parent="_q4iehMltZ5T4as94G1Y-2">
          <mxGeometry x="155" y="250" width="50" height="41" as="geometry" />
        </mxCell>
        <mxCell id="_q4iehMltZ5T4as94G1Y-13" value="" style="rounded=1;whiteSpace=wrap;html=1;container=1;collapsible=0;fillColor=none;dashed=1;imageAspect=1;absoluteArcSize=1;verticalAlign=top;labelPosition=center;verticalLabelPosition=bottom;align=center;strokeColor=#6c8ebf;recursiveResize=0;" vertex="1" parent="_q4iehMltZ5T4as94G1Y-2">
          <mxGeometry x="10" y="10" width="340" height="230" as="geometry" />
        </mxCell>
        <mxCell id="_q4iehMltZ5T4as94G1Y-24" style="edgeStyle=orthogonalEdgeStyle;rounded=0;orthogonalLoop=1;jettySize=auto;html=1;" edge="1" parent="_q4iehMltZ5T4as94G1Y-13" source="_q4iehMltZ5T4as94G1Y-20" target="_q4iehMltZ5T4as94G1Y-22">
          <mxGeometry relative="1" as="geometry" />
        </mxCell>
        <mxCell id="_q4iehMltZ5T4as94G1Y-20" value="traefik - waf" style="shape=image;verticalLabelPosition=bottom;labelBackgroundColor=default;verticalAlign=top;aspect=fixed;imageAspect=0;image=data:image/svg+xml,PHN2ZyB4bWxuczp4bGluaz0iaHR0cDovL3d3dy53My5vcmcvMTk5OS94bGluayIgeG1sbnM9Imh0dHA6Ly93d3cudzMub3JnLzIwMDAvc3ZnIiBoZWlnaHQ9IjI1MDAiIHdpZHRoPSIyMTE5IiBzdHJva2UtbGluZWpvaW49InJvdW5kIiBzdHJva2UtbGluZWNhcD0icm91bmQiIHN0cm9rZT0iIzAwMCIgZmlsbC1ydWxlPSJldmVub2RkIiBmaWxsPSIjZmZmIiB2aWV3Qm94PSItMC4xMTk5OTk5OTk5OTk5OTk2MSAtMC43OSA1Ni4xNzE5OTk5OTk5OTk5OSA2NS42MjEwMDAwMDAwMDAwMSI+PHVzZSB5PSIuNSIgeD0iLjUiIHhsaW5rOmhyZWY9IiNhIi8+PHN5bWJvbCBvdmVyZmxvdz0idmlzaWJsZSIgaWQ9ImEiPjxnIGZpbGwtcnVsZT0ibm9uemVybyIgc3Ryb2tlPSJub25lIj48cGF0aCBmaWxsPSIjYzk3ODFmIiBkPSJNOC40NjcgMjUuMTUyczQuNi0zLjk5OCAxOC4yMTItMy45OThjMTIuNDg4IDAgMTUuOTk4IDIuODMgMTkuNTYyIDRsLTE4LjU5NiA5LjA3NXoiLz48cGF0aCBmaWxsPSIjZjZkMmEyIiBkPSJNNi41MjYgMzcuMTg3Yy4wODQgMS43MzUgMS44Mi45MzIgMi42MDUuNC43NDYtLjUxNS45NjQtLjA4NyAxLjAzLTEuMTAzbC4wODItMi4wMDZjLTEuMTMtLjEwMi0yLjM1NS4xNjYtMy4yOC44MzctLjQ3OC4zNDgtMS4zNyAxLjQ1LS40MzUgMS44ODIiLz48cGF0aCBmaWxsPSIjYzZiMTk4IiBkPSJNNi41MjYgMzcuMTg3Yy4yNTMtLjA5My41Mi0uMTYuNjktLjM5Ii8+PHBhdGggZmlsbD0iIzM3YWJjOCIgZD0iTTEwLjUzNSAxNi41MjRjLTYuNjUtMS44Ny0xLjcwNS0xMC4zMTQgMy42MzQtNi44NHptMjkuNTQtNy40NzRjNS4yNjMtMy42OTIgMTAuMDIgNC42MzcgMy45MDIgNi43MzN6Ii8+PHBhdGggZmlsbD0iI2Y2ZDJhMiIgZD0iTTQxLjIxIDU4LjUzNGMxLjMzNy44MjYgMy43OCAzLjMyNCAxLjc3NSA0LjUzNS0xLjkyNyAxLjc2Mi0zLjAwNS0xLjkzNC00LjY5Ni0yLjQ0Ni43MjgtLjk4OCAxLjY1LTEuODg4IDIuOTItMi4wOXptLTIzLjg4MyAyLjgyM2MtMS41Ny4yNDItMi40NTIgMS42NTYtMy43NiAyLjM3NC0xLjIzMy43MzQtMS43MDQtLjIzNS0xLjgxNS0uNDMyLS4xOTYtLjA4OC0uMTc3LjA4Mi0uNDc1LS4yMTgtMS4xNDMtMS44IDEuMTktMy4xMTggMi40MDYtNC4wMTIgMS42OTItLjM0MiAyLjc1MyAxLjEyMyAzLjY0NSAyLjI4OHoiLz48cGF0aCBmaWxsPSIjMDc3ZTkxIiBkPSJNMTAuODEzIDE0LjJjLS44NzctLjQ2LTEuNTItMS4wOTItLjk4NC0yLjEwNi40OTctLjkzOCAxLjQyLS44MzYgMi4yOTctLjM3M3ptMzEuNzgtLjg4Yy44NzctLjQ2MyAxLjUyLTEuMDkzLjk4NC0yLjEwNi0uNDk3LS45MzgtMS40Mi0uODM2LTIuMjk3LS4zNzN6Ii8+PHBhdGggZmlsbD0iI2Y2ZDJhMiIgZD0iTTQ4LjYzIDM2Ljk2NmMtLjA4NCAxLjczNC0xLjgyLjkzMi0yLjYwNS40LS43NDYtLjUxNS0uOTY0LS4wODctMS4wMy0xLjEwM2wtLjA4Mi0yLjAwNmMxLjEzLS4xMDIgMi4zNTUuMTY2IDMuMjguODM3LjQ3OC4zNDggMS4zNyAxLjQ1LjQzNSAxLjg4MiIvPjxwYXRoIGZpbGw9IiNjNmIxOTgiIGQ9Ik00OC42MyAzNi45NjdjLS4yNTMtLjA5My0uNTItLjE2LS42OS0uMzg4Ii8+PHBhdGggZmlsbD0iIzM3YWJjOCIgZD0iTTI2LjkxMiA1LjU0YzYuNjU3IDAgMTIuODk3Ljk1IDE2LjE1IDcuMzM3IDIuOTIgNy4xNiAxLjg4MiAxNC44NzggMi4zMjcgMjIuNDQ0LjM4MyA2LjQ5NiAxLjIzIDE0LTEuNzg4IDIwLjAyMi0zLjE3NSA2LjMzNC0xMS4xMSA3LjkyNy0xNy42NDMgNy42OTMtNS4xMzQtLjE4My0xMS4zMzUtMS44NTYtMTQuMjMyLTYuNTQtMy40LTUuNDk1LTEuOC0xMy42NjYtMS41NDMtMTkuNzguMjkyLTcuMjQzLTEuOTY0LTE0LjUwNy40MTgtMjEuNTk1IDIuNDcyLTcuMzUyIDkuMTM4LTkuMDE0IDE2LjMxMi05LjU4Ii8+PHBhdGggZD0iTTI4LjA4NyAxNC40NjVjMS4xOTUgNi45MzggMTIuNTUgNS4xMDQgMTAuOTItMS44OS0xLjQ2Mi02LjI3NS0xMS4zMTctNC41MzgtMTAuOTIgMS44OW0tMTMuNTcgMS4xMjJjMS41NSA2LjA0IDExLjIzMyA0LjQ5NCAxMC44NjgtMS41NjUtLjQzNS03LjI1Ny0xMi4zNS01Ljg1Ni0xMC44NjggMS41NjVtMTUuNzc1IDYuOTY2Yy4wMDUuOTI3LjIxNyAxLjgzMy4wMzQgMi44NzQtLjIzLjQzNS0uNjgzLjQ4LTEuMDczLjY1N2ExLjU4IDEuNTggMCAwIDEtMS4yMDktLjk0MmMtLjE0LTEuMDk1LjA1Mi0yLjE1Ni4wODctMy4yNXoiLz48cGF0aCBmaWxsPSIjMDAwIiBkPSJNMTUuNTUzIDE0LjYwMmMwLS45OC43My0xLjc3IDEuNjM1LTEuNzdzMS42MzUuNzkgMS42MzUgMS43Ny0uNzMgMS43Ny0xLjYzNSAxLjc3LTEuNjM1LS43OS0xLjYzNS0xLjc3eiIvPjxwYXRoIGQ9Ik0xNy41NDYgMTVjMC0uMjUuMTcyLS40NS4zODYtLjQ1cy4zODUuMi4zODUuNDUtLjE3Mi40NS0uMzg1LjQ1LS4zODYtLjItLjM4Ni0uNDV6Ii8+PHBhdGggZmlsbD0iIzAwMCIgZD0iTTI5LjI4IDE0LjE2MmMwLS45OC43MTctMS43NyAxLjYwOC0xLjc3czEuNjA4Ljc5IDEuNjA4IDEuNzctLjcxNyAxLjc3LTEuNjA4IDEuNzctMS42MDgtLjc5LTEuNjA4LTEuNzd6Ii8+PHBhdGggZD0iTTMxLjI0IDE0LjU2YzAtLjI1LjE3LS40NS4zOC0uNDVzLjM4LjIuMzguNDUtLjE3LjQ1LS4zOC40NS0uMzgtLjItLjM4LS40NXptLTUuNjIgOC4xMzJjLS43MTMgMS43MjcuMzk4IDUuMTggMi4zMzQgMi42My0uMTQtMS4wOTUuMDUyLTIuMTU2LjA4Ni0zLjI1eiIvPjxwYXRoIGZpbGw9IiNmNmQyYTIiIGQ9Ik0yNS41MDYgMTkuMzY3Yy0xLjMzLjExMy0yLjQxNyAxLjY5Mi0xLjcyNSAyLjk0Mi45MTYgMS42NTIgMi45Ni0uMTQ2IDQuMjMyLjAyMiAxLjQ2NS4wMyAyLjY2NSAxLjU0NyAzLjg0Mi4yNzQgMS4zMS0xLjQxMy0uNTYzLTIuNzk0LTIuMDI2LTMuNHoiLz48cGF0aCBmaWxsPSIjZWY5MzI1IiBkPSJNOC40NjcgMjUuMTUybC4zOTIgNi41MTdjLS4wMyAxLjk2MyAxLjg1NC43MjMgMS45NTIgMy44MXMtMS4xNCAyLjUwMi0xLjc5NCA0LjAxMy0xLjA5NiA4LjU4Ny0xLjA5NiA4LjU4Ny42NyAxLjMyMiAyLjc2IDIuNTEzIDUuNDU3IDEuODYgOC4zNjcgMS43MjggNC45OTItLjc1NSA1LjUxMy0xLjEgMS4zODMtMS40MzQgMS43MDgtMi4yNzcgMS4wMDMtNy43ODUuOTU2LTExLjc1Ny0uNzA1LTcuNjM3LS43MDUtNy42Mzd6Ii8+PHBhdGggZmlsbD0iI2U1ZTVlNSIgZD0iTTI2LjkxNCA0NC40OTNjLTguNTc2Ljk1Ni0xOC41MjctMS42ODctMTguNTI3LTEuNjg3cy4xNDYtMi42OC44LTMuNjI0YzguOTIgMi43NiAxNy45MTggMS44ODUgMTcuOTE4IDEuODg1LjEzMyAxLjI1LjA0IDIuMjQ2LS4xOCAzLjQyNnptLTEuMDc3IDUuMjgzYy04LjU3Ni45NTYtMTcuOTEzLTEuNzkzLTE3LjkxMy0xLjc5M3MtLjAzLTIuNTc1LjMxLTMuNzA2YzguOTIgMi43NiAxOC40NDYgMi4wNzIgMTguNDQ2IDIuMDcyLS4wOCAxLjM2LS4yNzIgMi42OTYtLjg0NCAzLjQyNnoiLz48cGF0aCBmaWxsPSIjZWY5MzI1IiBkPSJNNDYuMjQyIDI1LjE1MmwtLjAzIDYuNTE3Yy4wMyAxLjk2My0xLjE0LjcyMy0xLjI0IDMuODFzMS4xNTUgMi41MDIgMS44MTYgNC4wMTMgMS4xIDguNTg3IDEuMSA4LjU4Ny0uNjc4IDEuMzIyLTIuNzk2IDIuNTEzLTUuNTIzIDEuODYtOC40NzIgMS43MjgtNS4wNTUtLjc1NS01LjU4Mi0xLjEtMS40LTEuNDM0LTEuNzMtMi4yNzctMS4wMTYtNy43ODUtLjk2Ny0xMS43NTcuNzEzLTcuNjM3LjcxMy03LjYzN3oiLz48cGF0aCBmaWxsPSIjZTVlNWU1IiBkPSJNMjguNjY3IDQ0LjQ5M2M4LjY4NC45NTYgMTguNzYyLTEuNjg3IDE4Ljc2Mi0xLjY4N3MtLjE0OC0yLjY4LS44LTMuNjI0Yy05LjAzMiAyLjc2LTE4LjE0MyAxLjg4NS0xOC4xNDMgMS44ODUtLjEzNSAxLjI1LS4wNCAyLjI0Ni4xODMgMy40MjZ6bTEuMDkzIDUuMjgzYzguNjg0Ljk1NiAxOC4xMzgtMS43OTMgMTguMTM4LTEuNzkzcy4wMy0yLjU3NS0uMzE1LTMuNzA2Yy05LjAzIDIuNzYtMTguNjc4IDIuMDcyLTE4LjY3OCAyLjA3Mi4wOCAxLjM2LjI3NSAyLjY5Ni44NTUgMy40MjZ6Ii8+PHBhdGggZmlsbD0iI2QyZTI2MSIgZD0iTTQ5LjcwNSAzMy41MDRjLS4yNy41MS0uODA0Ljc1NC0xLjE5My41NDhsLS4zMTItLjE2NWMtLjM5LS4yMDYtLjQ4Ni0uNzgzLS4yMTYtMS4yOTRsNi4wNzctMTEuNDU1Yy4yNy0uNTEuODA0LS43NTQgMS4xOTMtLjU0OGwuMzEyLjE2NWMuMzkuMjA2LjQ4Ni43ODMuMjE2IDEuMjk0eiIvPjxwYXRoIGZpbGw9IiMwMDAiIGQ9Ik00Ni44MzYgMzguOTE0Yy0uMTU3LjI5Ni0uNi4zNy0uOTkuMTY0bC0uMzEyLS4xNjVjLS4zOS0uMjA2LS41NzctLjYxMy0uNDItLjkxbDIuODUtNS4zNzRjLjE1Ny0uMjk2LjYtLjM3Ljk5LS4xNjRsLjMxMi4xNjVjLjM5LjIwNi41NzcuNjEzLjQyLjkxeiIvPjxwYXRoIGZpbGw9IiM5YjliOWIiIGQ9Ik00OS4zNyAzMi40MzVsLS4zMTItLjE2NWMtLjM5LS4yMDYtLjc4Ny0uMjE3LS44OS0uMDI1bC0uMTgyLjM0M2MuMTAyLS4xOTIuNS0uMTguODkuMDI1bC4zMTIuMTY1Yy4zOS4yMDYuNjIyLjUyOC41Mi43MmwuMTgyLS4zNDNjLjEwMi0uMTkyLS4xMy0uNTE1LS41Mi0uNzJ6Ii8+PHBhdGggZmlsbD0iI2Y2ZDJhMiIgZD0iTTQ1LjU1IDM1LjA3NmMuMi0uNTM3LjkyLS43NiAxLjYxNC0uNTAyczEuMDkzLjkuODkzIDEuNDM1LS45Mi43Ni0xLjYxNC41MDItMS4wOTMtLjktLjg5My0xLjQzNXoiLz48cGF0aCBmaWxsPSIjZDJlMjYxIiBkPSJNNS42NyAzMy42ODdjLjI0Ni41Mi43Ny44IDEuMTY3LjYwMmwuMzItLjE1Yy4zOTgtLjE4OC41Mi0uNzYyLjI3NS0xLjI4MmwtNS41NDUtMTEuNzJjLS4yNDYtLjUyLS43NjgtLjgtMS4xNjctLjYwMmwtLjMyLjE1Yy0uMzk4LjE4OC0uNTIuNzYyLS4yNzUgMS4yODJ6Ii8+PHBhdGggZmlsbD0iIzAwMCIgZD0iTTguMyAzOS4yMjVjLjE0My4zMDMuNTgzLjM5Ny45NzguMjFsLjMyLS4xNWMuMzk4LS4xODguNjA0LS41ODYuNDYtLjg5bC0yLjYtNS40OTdjLS4xNDMtLjMwMy0uNTgzLS4zOTYtLjk3OC0uMjFsLS4zMi4xNWMtLjM5OC4xODgtLjYwNC41ODYtLjQ2Ljg5eiIvPjxwYXRoIGZpbGw9IiM5YjliOWIiIGQ9Ik02LjA1NSAzMi42MzdsLjMyLS4xNWMuMzk4LS4xODguNzk2LS4xOC44OS4wMTZsLjE2Ni4zNTJjLS4wOTMtLjE5Ny0uNDktLjIwMy0uODktLjAxNmwtLjMyLjE1Yy0uMzk4LjE4OC0uNjQ2LjUtLjU1My42OTZsLS4xNjYtLjM1MmMtLjA5My0uMTk2LjE1Mi0uNTA4LjU1My0uNjk2eiIvPjxwYXRoIGZpbGw9IiNmNmQyYTIiIGQ9Ik0xMCAzNS4yMjZjLjIuNTM3LS4yIDEuMTc3LS44OTMgMS40MzVzLTEuNDE1LjAzNS0xLjYxNC0uNTAyLjItMS4xNzcuODkzLTEuNDM1UzkuOCAzNC42OSAxMCAzNS4yMjZ6Ii8+PHBhdGggZmlsbD0iIzk2MDAwMCIgZD0iTTExLjMxNiAxOS4xMjZjLS4yNjQuNDgtLjg4OC42NDQtMS4zOTMuMzY3bC0uNTgtLjMyYy0uNTA1LS4yNzctLjctLjg5LS40MzYtMS4zN0wxNC45NSA2LjgyNWMuMjY0LS40OC44ODgtLjY0NCAxLjM5My0uMzY3bC41OC4zMmMuNTA1LjI3Ny42MzUuNzk2LjQzNiAxLjM3LTIuMTE4IDYuMS02LjA0NSAxMC45NzgtNi4wNDUgMTAuOTc4eiIvPjxwYXRoIGZpbGw9IiM1OTU5NTkiIGQ9Ik0xMi45MTUgMTIuODU2YzEuODM4LTMuMzM4IDMuMDQ0LTYuMiAyLjc1OC02LjUzNWwuMDA2LS4wMTItLjAyMi0uMDEtLjAwMy0uMDAyQzEyLjgyOCA0Ljc2NyA5LjAyNyA2LjI4IDcuMTUgOS42OXMtMS4xMjIgNy40MjYgMS42ODQgOC45OWgtLjAwMWMuMDEyLjAwNC4wMTguMDEuMDI2LjAxNGwuMDA3LS4wMTJjLjQzLjA2OCAyLjItMi40ODggNC4wNDgtNS44MjZ6Ii8+PHBhdGggZmlsbD0iIzk2MDAwMCIgZD0iTTQzLjIwNyAxOS4xNWMuMjUuNDg3Ljg3LjY3IDEuMzgyLjQwN2wuNi0uMzA0Yy41MTMtLjI2My43MjYtLjg3LjQ3NS0xLjM1OEwzOS45MyA2Ljc0NmMtLjI1LS40ODctLjg3LS42Ny0xLjM4Mi0uNDA3bC0uNi4zMDRjLS41MTMuMjYzLS42NTguNzc4LS40NzUgMS4zNTggMS45NCA2LjE2IDUuNzI1IDExLjE0OCA1LjcyNSAxMS4xNDh6Ii8+PHBhdGggZmlsbD0iIzU5NTk1OSIgZD0iTTQxLjc5IDEyLjgzOGMtMS43NC0zLjQtMi44NjUtNi4yOTUtMi41NjgtNi42MTJsLS4wMDctLjAxMmMuMDA4LS4wMDQuMDE3LS4wMDYuMDI0LS4wMWwuMDAzLS4wMDFjMi44Ny0xLjQ0NiA2LjYyMy4xNzQgOC40IDMuNjRzLjkwNyA3LjQ1NC0xLjk0MyA4LjkzNnYuMDAyYy0uMDEyLjAwNC0uMDIuMDEtLjAyNy4wMTRsLS4wMDctLjAxMmMtLjQzLjA1Ni0yLjEzOC0yLjU1LTMuODgtNS45NHoiLz48cGF0aCBmaWxsPSIjMzUzNTM1IiBkPSJNNDcuNDU3IDExLjQwNnMtMi4xMTUtNS4zLTQuNTY4LTguMDg3LTI2LjQ1My0zLjc1LTMwLjM5NCAwLTUuNDI3IDguMDg4LTUuNDI3IDguMDg4di0xLjE3NFM4Ljg5IDUuMDggMTIuNDk1IDIuMTQ1czI3LjI4OC0yLjc4MyAzMC4zNDQgMCA0LjYxOCA4LjA4NyA0LjYxOCA4LjA4N3oiLz48cGF0aCBmaWxsPSIjOTYwMDAwIiBkPSJNNDguMTY1IDkuNjM4Yy41Ljk5Ni41OTMgMS45NjcuMTg1IDIuMTc2cy0xLjE0OC0uNDI0LTEuNjYtMS40Mi0uNTkzLTEuOTY2LS4xODUtMi4xNzYgMS4xNDguNDI0IDEuNjYgMS40MnpNNi42MzggOS40OGMuNTQtLjk4IDEuMjk3LTEuNTkzIDEuNy0xLjM3MnMuMjkyIDEuMi0uMjQ4IDIuMTctMS4yOTcgMS41OTMtMS43IDEuMzctLjI5Mi0xLjIuMjQ4LTIuMTd6Ii8+PHBhdGggb3BhY2l0eT0iLjYiIGQ9Ik0zOC40MTQgMTAuMjlIMTYuMDNjLTQuMDIgMC00LjAwNSAxMC42NjYtLjIzMiAxMS4yOGw3LjgwNS0uNWMuOTQ0IDAgMi44MjctMy42NSAzLjE4LTMuOTM2czEuNTE4LS4zMjIgMS45NzYgMCAxLjUgMy41NjggMi40NDQgMy41NjhsNy44MDUuODdjMy42NDUtMS42NzUgMi43MjYtMTEuMjgtLjU4Ny0xMS4yOHoiLz48cGF0aCBvcGFjaXR5PSIuNSIgZD0iTTIxLjk3MiAxMi40OTVsLTguNDMtLjAxNWMtLjM1MyAxLjE1Ny0uNzQ3IDIuNjItLjU1MiA0LjA0NGw5LjAzMy4wMWMxLjc4IDAgMy4yOC4zMzYgNC42NzQuN2EuNzkuNzkgMCAwIDEgLjA4Ni0uMDk0Yy4zNTMtLjI4NyAxLjUxNy0uMzIyIDEuOTc2IDAgLjExOC4wODMuMjc3LjM2NC40NjIuNzMyYTEwLjkyIDEwLjkyIDAgMCAwIDIuMTY0LjI2Mmw5Ljc4Mi4wMWMuMzg3LTEuMjkyLjEwMi0yLjY3OC4wMTUtMy45OC0yLjk2OCAwLTcuNjg2LS4wNjctOS45NDgtLjA2Ny0zLjE4NyAwLTUuOTctMS41MjYtOS4yNTgtMS42eiIvPjxwYXRoIGZpbGw9IiMwMDAiIGQ9Ik0yNS4zMzggMTkuMjk3Yy0uMDk4LTIuMyA0LjI5NC0yLjU4OCA0LjgxMy0uNjYycy00LjU5NiAyLjM3LTQuODEyLjY2MmMtLjE3My0xLjM2IDAgMCAwIDB6Ii8+PC9nPjwvc3ltYm9sPjwvc3ZnPg==;" vertex="1" parent="_q4iehMltZ5T4as94G1Y-13">
          <mxGeometry x="216.11" y="20" width="67.79" height="80" as="geometry" />
        </mxCell>
        <mxCell id="_q4iehMltZ5T4as94G1Y-22" value="download-api" style="rounded=1;whiteSpace=wrap;html=1;absoluteArcSize=1;" vertex="1" parent="_q4iehMltZ5T4as94G1Y-13">
          <mxGeometry x="190" y="150" width="120" height="60" as="geometry" />
        </mxCell>
        <mxCell id="_q4iehMltZ5T4as94G1Y-35" value="" style="shadow=0;dashed=0;html=1;strokeColor=none;fillColor=#4495D1;labelPosition=center;verticalLabelPosition=bottom;verticalAlign=top;align=center;outlineConnect=0;shape=mxgraph.veeam.2d.hard_drive;" vertex="1" parent="_q4iehMltZ5T4as94G1Y-2">
          <mxGeometry x="240" y="310" width="40" height="48" as="geometry" />
        </mxCell>
        <mxCell id="_q4iehMltZ5T4as94G1Y-37" style="rounded=0;orthogonalLoop=1;jettySize=auto;html=1;" edge="1" parent="_q4iehMltZ5T4as94G1Y-2" source="_q4iehMltZ5T4as94G1Y-22" target="_q4iehMltZ5T4as94G1Y-35">
          <mxGeometry relative="1" as="geometry" />
        </mxCell>
        <mxCell id="_q4iehMltZ5T4as94G1Y-6" value="OCI" style="rounded=1;whiteSpace=wrap;html=1;container=1;collapsible=0;fillColor=none;dashed=1;imageAspect=1;absoluteArcSize=1;verticalAlign=bottom;labelPosition=center;verticalLabelPosition=top;align=center;recursiveResize=0;" vertex="1" parent="1">
          <mxGeometry x="320" y="-360" width="610" height="400" as="geometry" />
        </mxCell>
        <mxCell id="_q4iehMltZ5T4as94G1Y-9" value="" style="image;sketch=0;aspect=fixed;html=1;points=[];align=center;fontSize=12;image=img/lib/mscae/Docker.svg;" vertex="1" parent="_q4iehMltZ5T4as94G1Y-6">
          <mxGeometry x="280" y="340" width="50" height="41" as="geometry" />
        </mxCell>
        <mxCell id="_q4iehMltZ5T4as94G1Y-10" value="" style="rounded=1;whiteSpace=wrap;html=1;container=1;collapsible=0;fillColor=none;dashed=1;imageAspect=1;absoluteArcSize=1;verticalAlign=top;labelPosition=center;verticalLabelPosition=bottom;align=center;strokeColor=#006EAF;fontColor=#ffffff;recursiveResize=0;" vertex="1" parent="_q4iehMltZ5T4as94G1Y-6">
          <mxGeometry x="10" y="10" width="590" height="310" as="geometry" />
        </mxCell>
        <mxCell id="_q4iehMltZ5T4as94G1Y-3" value="Meilisearch" style="shape=image;verticalLabelPosition=bottom;labelBackgroundColor=default;verticalAlign=top;aspect=fixed;imageAspect=0;image=data:image/svg+xml,PHN2ZyB4bWxucz0iaHR0cDovL3d3dy53My5vcmcvMjAwMC9zdmciIHByZXNlcnZlQXNwZWN0UmF0aW89InhNaWRZTWlkIiB2ZXJzaW9uPSIxLjEiIHZpZXdCb3g9IjAgMCAyNTYgMTQ5LjI4ODU3NDIxODc1IiBoZWlnaHQ9IjE0OS4yODg1NzQyMTg3NSIgd2lkdGg9IjI1NiI+JiN4YTsgICAgPHRpdGxlPk1laWxpc2VhcmNoPC90aXRsZT4mI3hhOyAgICA8ZGVmcz4mI3hhOyAgICAgICAgPGxpbmVhckdyYWRpZW50IGlkPSJtZWlsaXNlYXJjaExpbmVhckdyYWRpZW50LTEiIHkyPSI4OS4yMzg3NTgxJSIgeDI9IjE5LjE3MjEwNDElIiB5MT0iLTcuNjM4MjYxMzglIiB4MT0iMTUzLjgyMDYwOCUiPiYjeGE7ICAgICAgICAgICAgPHN0b3Agb2Zmc2V0PSIwJSIgc3RvcC1jb2xvcj0iI0ZGNUNBQSIvPiYjeGE7ICAgICAgICAgICAgPHN0b3Agb2Zmc2V0PSIxMDAlIiBzdG9wLWNvbG9yPSIjRkY0RTYyIi8+JiN4YTsgICAgICAgIDwvbGluZWFyR3JhZGllbnQ+JiN4YTsgICAgICAgIDxsaW5lYXJHcmFkaWVudCBpZD0ibWVpbGlzZWFyY2hMaW5lYXJHcmFkaWVudC0yIiB5Mj0iODkuMjM4NDg5MiUiIHgyPSItMTcuMzIyOTk3MiUiIHkxPSItNy42Mzg0OTczMSUiIHgxPSIxMTcuMzI1MyUiPiYjeGE7ICAgICAgICAgICAgPHN0b3Agb2Zmc2V0PSIwJSIgc3RvcC1jb2xvcj0iI0ZGNUNBQSIvPiYjeGE7ICAgICAgICAgICAgPHN0b3Agb2Zmc2V0PSIxMDAlIiBzdG9wLWNvbG9yPSIjRkY0RTYyIi8+JiN4YTsgICAgICAgIDwvbGluZWFyR3JhZGllbnQ+JiN4YTsgICAgICAgIDxsaW5lYXJHcmFkaWVudCBpZD0ibWVpbGlzZWFyY2hMaW5lYXJHcmFkaWVudC0zIiB5Mj0iODkuMjM4NDg5MiUiIHgyPSItNTMuODIwNzI3NCUiIHkxPSItNy42Mzg0OTczMSUiIHgxPSI4MC44MjgwMzc2JSI+JiN4YTsgICAgICAgICAgICA8c3RvcCBvZmZzZXQ9IjAlIiBzdG9wLWNvbG9yPSIjRkY1Q0FBIi8+JiN4YTsgICAgICAgICAgICA8c3RvcCBvZmZzZXQ9IjEwMCUiIHN0b3AtY29sb3I9IiNGRjRFNjIiLz4mI3hhOyAgICAgICAgPC9saW5lYXJHcmFkaWVudD4mI3hhOyAgICA8L2RlZnM+JiN4YTsgICAgPGc+JiN4YTsgICAgICAgIDxwYXRoIGZpbGw9InVybCgjbWVpbGlzZWFyY2hMaW5lYXJHcmFkaWVudC0xKSIgZD0iTTAsMTQ5LjI4ODE2NCBMNDcuMjk2OTAwMywyOC4yNzY1Nzc3IEM1My45NjE5MzIzLDExLjIyMzY1OTUgNzAuMzk5MTU2NiwwIDg4LjcwODIwNiwwIEwxMTcuMjIyODYzLDAgTDY5LjkyNjA2MjUsMTIxLjAxMTU4IEM2My4yNjEwMzA1LDEzOC4wNjQ1MzkgNDYuODIzODA2MSwxNDkuMjg4MTY0IDI4LjUxNDU1MzMsMTQ5LjI4ODE2NCBMMCwxNDkuMjg4MTY0IFoiLz4mI3hhOyAgICAgICAgPHBhdGggZmlsbD0idXJsKCNtZWlsaXNlYXJjaExpbmVhckdyYWRpZW50LTIpIiBkPSJNNjkuMzg2NDI5OSwxNDkuMjg4NTcxIEwxMTYuNjgzMjMsMjguMjc2OTg0NyBDMTIzLjM0ODI2MiwxMS4yMjQwMDU0IDEzOS43ODU0ODcsMC4wMDAzNTYwOTIzODIgMTU4LjA5NDc0LDAuMDAwMzU2MDkyMzgyIEwxODYuNjA5MTkzLDAuMDAwMzU2MDkyMzgyIEwxMzkuMzEyMzkzLDEyMS4wMTE5ODcgQzEzMi42NDczNjEsMTM4LjA2NDk0NiAxMTYuMjEwMTM2LDE0OS4yODg1NzEgOTcuOTAwODgzNSwxNDkuMjg4NTcxIEw2OS4zODY0Mjk5LDE0OS4yODg1NzEgWiIvPiYjeGE7ICAgICAgICA8cGF0aCBmaWxsPSJ1cmwoI21laWxpc2VhcmNoTGluZWFyR3JhZGllbnQtMykiIGQ9Ik0xMzguNzc2ODMsMTQ5LjI4ODU3MSBMMTg2LjA3MzYzLDI4LjI3Njk4NDcgQzE5Mi43Mzg2NjIsMTEuMjI0MDA1NCAyMDkuMTc0ODY5LDAuMDAwMzU2MDkyMzgyIDIyNy40ODQxMjIsMC4wMDAzNTYwOTIzODIgTDI1NiwwLjAwMDM1NjA5MjM4MiBMMjA4LjcwMjc5MiwxMjEuMDExOTg3IEMyMDIuMDM2NzQzLDEzOC4wNjQ5NDYgMTg1LjYwMDUzNiwxNDkuMjg4NTcxIDE2Ny4yOTEyODMsMTQ5LjI4ODU3MSBMMTM4Ljc3NjgzLDE0OS4yODg1NzEgWiIvPiYjeGE7ICAgIDwvZz4mI3hhOzwvc3ZnPg==;" vertex="1" parent="_q4iehMltZ5T4as94G1Y-10">
          <mxGeometry x="335.14190476190475" y="79.99818181818185" width="68.72" height="40" as="geometry" />
        </mxCell>
        <mxCell id="_q4iehMltZ5T4as94G1Y-16" value="" style="shape=image;verticalLabelPosition=bottom;labelBackgroundColor=default;verticalAlign=top;aspect=fixed;imageAspect=0;image=data:image/svg+xml,PHN2ZyB4bWxucz0iaHR0cDovL3d3dy53My5vcmcvMjAwMC9zdmciIHZpZXdCb3g9IjAgMCA3ODkuMSAxOTUuNjQiIGRhdGEtbmFtZT0iTGF5ZXIgMSIgaWQ9IkxheWVyXzEiPiYjeGE7ICA8ZGVmcz4mI3hhOyAgICA8c3R5bGU+LmNscy0xe2ZpbGw6IzIzMWYyMDt9PC9zdHlsZT4mI3hhOyAgPC9kZWZzPiYjeGE7ICA8dGl0bGU+TURCLUhMb2dvX0JsYWNrPC90aXRsZT4mI3hhOyAgPHBhdGggdHJhbnNmb3JtPSJ0cmFuc2xhdGUoMCAtMi4xOCkiIGQ9Ik0zNzguMDgsNjguODFsMTguNTIsNzEuNWgtMTRsLTEyLjM4LTUxLjUtMjMuMTcsNTEuNUgzMzUuM2wtMjMuMDctNTEuMi0xMi42OCw1MS4ySDI4NS44OWwxOC4zMi03MS41aDEyLjA4bDI0Ljk1LDU1LjM2TDM2Ni4xLDY4LjgxWiIgY2xhc3M9ImNscy0xIi8+JiN4YTsgIDxwYXRoIHRyYW5zZm9ybT0idHJhbnNsYXRlKDAgLTIuMTgpIiBkPSJNNDQ5LjI3LDk2LjQ0Vjg4LjEyaDEzLjQ3djUyLjE5SDQ0OS4yN3YtOC40MmMtMy41Niw2LTEwLjg5LDkuNTEtMTkuOCw5LjUxLTE4LjYyLDAtMjktMTMuMDctMjktMjguMjIsMC0xNC41Niw5LjktMjYuMjUsMjctMjYuMjVDNDM3LjI5LDg2LjkzLDQ0NS40MSw5MC4zLDQ0OS4yNyw5Ni40NFptLTM0LjQ2LDE3LjQzYzAsOS42MSw2LDE3LjgzLDE3LjcyLDE3LjgzLDExLjI5LDAsMTcuNDMtOCwxNy40My0xNy41M3MtNi4zMy0xNy42My0xOC0xNy42M0M0MjAuNjUsOTYuNTQsNDE0LjgxLDEwNC42Niw0MTQuODEsMTEzLjg3WiIgY2xhc3M9ImNscy0xIi8+JiN4YTsgIDxwYXRoIHRyYW5zZm9ybT0idHJhbnNsYXRlKDAgLTIuMTgpIiBkPSJNNDkzLjEzLDE0MC4zMUg0NzkuNjZWODguMTJoMTMuNDdWOTkuODFjMy41Ni04LDEwLjc5LTEyLjg4LDE4LjgxLTEyLjg4YTI0LjIsMjQuMiwwLDAsMSw4LjQyLDEuMzlsLTIuODcsOS45YTI5LjY2LDI5LjY2LDAsMCwwLTcuMTMtMWMtOS43MSwwLTE3LjIzLDcuMzMtMTcuMjMsMTguMTJaIiBjbGFzcz0iY2xzLTEiLz4mI3hhOyAgPHBhdGggdHJhbnNmb3JtPSJ0cmFuc2xhdGUoMCAtMi4xOCkiIGQ9Ik01MjcuMDksNzQuMzZhNi44NSw2Ljg1LDAsMCwxLDcuMjMtNyw3LjEsNy4xLDAsMCwxLDcuMzMsNy4yM2MwLDMuNDYtMi4zOCw2LjkzLTcuMzMsNi45M0E2Ljk0LDYuOTQsMCwwLDEsNTI3LjA5LDc0LjM2Wm0uNTksMTMuNzZoMTMuNDd2MzguMTNjMCwyLjM4LjUsNC4wNiwyLjQ4LDQuMDZhMTQuMzcsMTQuMzcsMCwwLDAsMi41Ny0uM2wyLjA4LDkuODFhMjMuOTIsMjMuOTIsMCwwLDEtOC45MSwxLjU4Yy01LjY1LDAtMTEuNjktMS42OC0xMS42OS0xNC40NloiIGNsYXNzPSJjbHMtMSIvPiYjeGE7ICA8cGF0aCB0cmFuc2Zvcm09InRyYW5zbGF0ZSgwIC0yLjE4KSIgZD0iTTYwMS4zNiw5Ni40NFY4OC4xMmgxMy40NnY1Mi4xOUg2MDEuMzZ2LTguNDJjLTMuNTcsNi0xMC45LDkuNTEtMTkuODEsOS41MS0xOC42MiwwLTI5LTEzLjA3LTI5LTI4LjIyLDAtMTQuNTYsOS45MS0yNi4yNSwyNy0yNi4yNUM1ODkuMzcsODYuOTMsNTk3LjQ5LDkwLjMsNjAxLjM2LDk2LjQ0Wm0tMzQuNDcsMTcuNDNjMCw5LjYxLDYsMTcuODMsMTcuNzMsMTcuODMsMTEuMjksMCwxNy40My04LDE3LjQzLTE3LjUzcy02LjM0LTE3LjYzLTE4LTE3LjYzQzU3Mi43NCw5Ni41NCw1NjYuODksMTA0LjY2LDU2Ni44OSwxMTMuODdaIiBjbGFzcz0iY2xzLTEiLz4mI3hhOyAgPHBhdGggdHJhbnNmb3JtPSJ0cmFuc2xhdGUoMCAtMi4xOCkiIGQ9Ik02MzUuNTEsNjguODFINjY3LjhjMjcuMTMsMCw0MC43LDE1LDQwLjUsMzUuNzUuMiwyMS41OS0xNC43NiwzNS43NS0zOC4xMywzNS43NUg2MzUuNTFabTguOTEsNi4zNHY1OC45Mkg2NjljMjEuNTksMCwyOS44MS0xNC41NiwyOS44MS0yOS43MSwwLTE3LjEzLTEwLjMtMjkuMjEtMjkuODEtMjkuMjFaIiBjbGFzcz0iY2xzLTEiLz4mI3hhOyAgPHBhdGggdHJhbnNmb3JtPSJ0cmFuc2xhdGUoMCAtMi4xOCkiIGQ9Ik03NjMuMzUsMTQwLjMxaC00MVY2OC44MWgzNi45NGMxNC4xNiwwLDI3LjYzLDIuNjgsMjcuNDMsMTguNTIsMCwxMS4xOS02LjkzLDE0LjI2LTE0LjI2LDE1LjQ1LDEwLjQuODksMTYuNjQsNy41MiwxNi42NCwxOC4yMkM3ODkuMTksMTM3LDc3NS4xMywxNDAuMzEsNzYzLjM1LDE0MC4zMVpNNzYwLjI4LDEwMGMxNC4xNiwwLDE3LjMzLTUuNDUsMTcuMzMtMTIuMzgsMC0xMC40LTYuMzQtMTIuNzgtMTcuMzMtMTIuNzhINzMwLjg3VjEwMFptLjM5LDZoLTI5Ljh2MjguMjJINzYyYzguNzIsMCwxNy45My0yLjg3LDE3LjkzLTEzLjg2Qzc3OS44OSwxMDcuNzMsNzY5LjI5LDEwNi4wNSw3NjAuNjcsMTA2LjA1WiIgY2xhc3M9ImNscy0xIi8+JiN4YTsgIDxwYXRoIHRyYW5zZm9ybT0idHJhbnNsYXRlKDAgLTIuMTgpIiBkPSJNMjk5LjIsMy4xNWE0LjM2LDQuMzYsMCwwLDAtMi45Mi0xYy0yLjksMC02LjY1LDItOC42NiwzbC0uODEuNDFBMjcuNjYsMjcuNjYsMCwwLDEsMjc2LDguMzRjLTMuODYuMTItNy4xOS4zNS0xMS41Ljc5LTI1LjY2LDIuNjQtMzcuMDUsMjIuMjgtNDguMDYsNDEuMjctNiwxMC4zMy0xMi4xOCwyMS0yMC42NywyOS4yOGE1NC45Miw1NC45MiwwLDAsMS01LjU5LDQuNzRjLTguNzgsNi41NS0xOS44MSwxMS4xNy0yOC40MywxNC40Ny04LjI2LDMuMTYtMTcuMjgsNi0yNiw4Ljc0LTgsMi41Mi0xNS41MSw0Ljg5LTIyLjQ0LDcuNDYtMy4xMywxLjE3LTUuNzksMi04LjEzLDIuODMtNi4zMSwyLjExLTEwLjg3LDMuNjItMTcuNTEsOC4xNy0yLjU5LDEuNzctNS4xOSwzLjctNyw1LjE0QTczLjQ2LDczLjQ2LDAsMCwwLDY2LjgsMTQ1Ljg1YTg2LjE5LDg2LjE5LDAsMCwxLTExLjYsMTRjLTEuNCwxLjM4LTMuODksMi03LjYyLDItNC4zNywwLTkuNjctLjktMTUuMjgtMS44NS01Ljc3LTEtMTEuNzUtMi0xNi44Ny0yLTQuMTcsMC03LjM1LjY3LTkuNzQsMi4wNiwwLDAtNCwyLjM0LTUuNjksNS4zNmwxLjY2Ljc1YTM0Ljc4LDM0Ljc4LDAsMCwxLDcuMSw1LjA4LDM1LDM1LDAsMCwwLDcuMzcsNS4yNCw2LjU4LDYuNTgsMCwwLDEsMi4yNywxLjUyYy0uNywxLTEuNzMsMi4zNC0yLjgsMy43NS01LjkyLDcuNzQtOS4zNywxMi42NC03LjM5LDE1LjNhNi4xNSw2LjE1LDAsMCwwLDMsLjdjMTIuOSwwLDE5LjgyLTMuMzUsMjguNTktNy42QzQyLjM3LDE4OSw0NSwxODcuNzMsNDgsMTg2LjQzYzUuMTItMi4yMiwxMC42NC01Ljc3LDE2LjQ4LTkuNTIsNy43NC01LDE1Ljc0LTEwLjEyLDIzLjQ5LTEyLjZhNjMuNyw2My43LDAsMCwxLDE5LjcxLTIuNzhjOC4yMywwLDE2LjgzLDEuMTEsMjUuMTUsMi4xNyw2LjIxLjgsMTIuNjMsMS42MiwxOC45MywyLDIuNDUuMTQsNC43Mi4yMSw2LjkyLjIxYTc5LjYzLDc5LjYzLDAsMCwwLDguODMtLjQ2bC43LS4yNWM0LjQyLTIuNzEsNi40OS04LjU0LDguNS0xNC4xOCwxLjI5LTMuNjMsMi4zNy02Ljg4LDQuMDUtOWEyLjY4LDIuNjgsMCwwLDEsLjM0LS4yNy40MS40MSwwLDAsMSwuNS4wOHMwLDAsMCwuMTZjLTEuMDYsMjIuMDUtOS45LDM2LTE4Ljg4LDQ4LjQ4bC02LDYuNDNzOC4zOSwwLDEzLjE2LTEuODRjMTcuNDItNS4yMSwzMC41OC0xNi42OSw0MC4xNS0zNWExNDguMzQsMTQ4LjM0LDAsMCwwLDYuMzItMTQuNDRjLjE2LS40MSwxLjY4LTEuMTcsMS41MywxLDAsLjYzLS4wOSwxLjMzLS4xNCwyaDBjMCwuNDMtLjA2Ljg3LS4wOCwxLjMxLS4yNSwzLjA1LTEsOS41OC0xLDkuNThsNS4zOC0yLjg5YzEzLTguMjIsMjMtMjQuNzMsMzAuNTYtNTAuNDcsMy4xNi0xMC43Miw1LjQ3LTIxLjM2LDcuNTEtMzAuNzYsMi40NC0xMS4yMyw0LjU1LTIwLjkzLDctMjQuNjgsMy43OC01Ljg4LDkuNTUtOS44NywxNS4xMy0xMy43MmwyLjI4LTEuNTljNy00LjkyLDE0LTEwLjYyLDE1LjU0LTIxLjIybDAtLjIzQzMwMS4yMiw2LjA5LDMwMC4yNyw0LjA3LDI5OS4yLDMuMTVaIiBjbGFzcz0iY2xzLTEiLz4mI3hhOzwvc3ZnPg==;" vertex="1" parent="_q4iehMltZ5T4as94G1Y-10">
          <mxGeometry x="310" y="25.22" width="119" height="29.56" as="geometry" />
        </mxCell>
        <mxCell id="_q4iehMltZ5T4as94G1Y-19" value="" style="shape=image;verticalLabelPosition=bottom;labelBackgroundColor=default;verticalAlign=top;aspect=fixed;imageAspect=0;image=data:image/svg+xml,PHN2ZyB4bWxucz0iaHR0cDovL3d3dy53My5vcmcvMjAwMC9zdmciIHZlcnNpb249IjEuMSIgeG1sOnNwYWNlPSJwcmVzZXJ2ZSIgaGVpZ2h0PSI4MCIgd2lkdGg9IjM0NCIgdmlld0JveD0iMCAwIDM0NCA4MCI+JiN4YTsgPGRlZnM+JiN4YTsgIDxsaW5lYXJHcmFkaWVudCBpZD0ic3ltYm9sXzFfIiB4MT0iMC41MjY5IiB5MT0iMC40OTkzNyIgeDI9IjQuMDUxMTgiIHkyPSIwLjQ5OTM3Ij4mI3hhOyAgIDxzdG9wIG9mZnNldD0iMCIgc3RvcC1jb2xvcj0iIzQ1OTFFRCIvPiYjeGE7ICAgPHN0b3Agb2Zmc2V0PSIxIiBzdG9wLWNvbG9yPSIjMDBDOUZGIi8+JiN4YTsgIDwvbGluZWFyR3JhZGllbnQ+JiN4YTsgIDxsaW5lYXJHcmFkaWVudCBpZD0iU1ZHSURfMV8iIHgxPSItMy41MjcwNiIgeTE9IjAuNDk5NzciIHgyPSIxMi4yNTUwMiIgeTI9IjAuNDk5NzciPiYjeGE7ICAgPHN0b3Agb2Zmc2V0PSIwIiBzdG9wLWNvbG9yPSIjNDU5MUVEIi8+JiN4YTsgICA8c3RvcCBvZmZzZXQ9IjEiIHN0b3AtY29sb3I9IiMwMEM5RkYiLz4mI3hhOyAgPC9saW5lYXJHcmFkaWVudD4mI3hhOyAgPGxpbmVhckdyYWRpZW50IGlkPSJTVkdJRF8yXyIgeDE9Ii0yLjMzNTU2IiB5MT0iMC40OTY5NyIgeDI9IjUuNzg2MjEiIHkyPSIwLjQ5Njk3Ij4mI3hhOyAgIDxzdG9wIG9mZnNldD0iMCIgc3RvcC1jb2xvcj0iIzQ1OTFFRCIvPiYjeGE7ICAgPHN0b3Agb2Zmc2V0PSIxIiBzdG9wLWNvbG9yPSIjMDBDOUZGIi8+JiN4YTsgIDwvbGluZWFyR3JhZGllbnQ+JiN4YTsgIDxsaW5lYXJHcmFkaWVudCBpZD0iU1ZHSURfM18iIHgxPSItMi41NTgyMyIgeTE9IjAuNTAxMDQiIHgyPSIzLjYwMDYzIiB5Mj0iMC41MDEwNCI+JiN4YTsgICA8c3RvcCBvZmZzZXQ9IjAiIHN0b3AtY29sb3I9IiM0NTkxRUQiLz4mI3hhOyAgIDxzdG9wIG9mZnNldD0iMSIgc3RvcC1jb2xvcj0iIzAwQzlGRiIvPiYjeGE7ICA8L2xpbmVhckdyYWRpZW50PiYjeGE7ICA8bGluZWFyR3JhZGllbnQgaWQ9IlNWR0lEXzRfIiB4MT0iLTQuNzI3MzciIHkxPSIwLjUwMDY4IiB4Mj0iMy4zOTQ0IiB5Mj0iMC41MDA2OCI+JiN4YTsgICA8c3RvcCBvZmZzZXQ9IjAiIHN0b3AtY29sb3I9IiM0NTkxRUQiLz4mI3hhOyAgIDxzdG9wIG9mZnNldD0iMSIgc3RvcC1jb2xvcj0iIzAwQzlGRiIvPiYjeGE7ICA8L2xpbmVhckdyYWRpZW50PiYjeGE7ICA8bGluZWFyR3JhZGllbnQgaWQ9IlNWR0lEXzVfIiB4MT0iLTUuMTI1MzYiIHkxPSIwLjUwMDM3IiB4Mj0iMi4xNjUwNSIgeTI9IjAuNTAwMzciPiYjeGE7ICAgPHN0b3Agb2Zmc2V0PSIwIiBzdG9wLWNvbG9yPSIjNDU5MUVEIi8+JiN4YTsgICA8c3RvcCBvZmZzZXQ9IjEiIHN0b3AtY29sb3I9IiMwMEM5RkYiLz4mI3hhOyAgPC9saW5lYXJHcmFkaWVudD4mI3hhOyAgPGxpbmVhckdyYWRpZW50IGlkPSJTVkdJRF82XyIgeDE9Ii02LjM2NjQ3IiB5MT0iMC40OTkwMyIgeDI9IjEuMjQzNTIiIHkyPSIwLjQ5OTAzIj4mI3hhOyAgIDxzdG9wIG9mZnNldD0iMCIgc3RvcC1jb2xvcj0iIzQ1OTFFRCIvPiYjeGE7ICAgPHN0b3Agb2Zmc2V0PSIxIiBzdG9wLWNvbG9yPSIjMDBDOUZGIi8+JiN4YTsgIDwvbGluZWFyR3JhZGllbnQ+JiN4YTsgIDxsaW5lYXJHcmFkaWVudCBpZD0iU1ZHSURfN18iIHgxPSItOC4wMzgxIiB5MT0iMC41IiB4Mj0iMC4yNTMzOCIgeTI9IjAuNSI+JiN4YTsgICA8c3RvcCBvZmZzZXQ9IjAiIHN0b3AtY29sb3I9IiM0NTkxRUQiLz4mI3hhOyAgIDxzdG9wIG9mZnNldD0iMSIgc3RvcC1jb2xvcj0iIzAwQzlGRiIvPiYjeGE7ICA8L2xpbmVhckdyYWRpZW50PiYjeGE7IDwvZGVmcz4mI3hhOyA8Zz4mI3hhOyAgPHRpdGxlPkxheWVyIDE8L3RpdGxlPiYjeGE7ICA8ZyBpZD0iaW5mbHV4ZGJfbG9nbyI+JiN4YTsgICA8cGF0aCBpZD0ic3ltYm9sXzJfIiBjbGFzcz0ic3QwIiBkPSJtNzguNzAzNTEsNDguMmwtNy42LC0zMy4yYy0wLjQsLTEuOCAtMi4xLC0zLjYgLTMuOSwtNC4xbC0zNC45LC0xMC43Yy0wLjUsLTAuMSAtMSwtMC4yIC0xLjUsLTAuMmMtMS41LDAgLTMuMSwwLjYgLTQsMS41bC0yNSwyMy4yYy0xLjMsMS4yIC0yLjEsMy42IC0xLjcsNS40bDguMSwzNS41YzAuNCwxLjggMi4xLDMuNiAzLjksNC4xbDMyLjYsMTBjMC41LDAuMSAxLDAuMiAxLjUsMC4yYzEuNSwwIDMuMSwtMC42IDQsLTEuNWwyNi43LC0yNC44YzEuNSwtMS4yIDIuMiwtMy42IDEuOCwtNS40em0tNDIuOCwtNDAuMmwyMy45LDcuM2MwLjksMC4zIDAuOSwwLjcgMCwwLjlsLTEyLjYsMi45Yy0xLDAuMiAtMi4zLC0wLjIgLTIuOSwtMC45bC04LjgsLTkuNWMtMC43LC0wLjYgLTAuNSwtMC45IDAuNCwtMC43em0xNC45LDQyLjljMC4yLDEgLTAuNCwxLjUgLTEuMywxLjJsLTI1LjgsLTcuOWMtMC45LC0wLjMgLTEuMSwtMS4xIC0wLjQsLTEuN2wxOS44LC0xOC40YzAuNywtMC43IDEuNSwtMC40IDEuNywwLjVsNiwyNi4zem0tNDIuNSwtMjMuNGwyMSwtMTkuNWMwLjcsLTAuNyAxLjgsLTAuNiAyLjUsMC4xbDEwLjUsMTEuM2MwLjcsMC43IDAuNiwxLjggLTAuMSwyLjVsLTIxLDE5LjVjLTAuNywwLjcgLTEuOCwwLjYgLTIuNSwtMC4xbC0xMC41LC0xMS4zYy0wLjYsLTAuNyAtMC42LC0xLjggMC4xLC0yLjV6bTUuMSwzMWwtNS42LC0yNC4zYy0wLjIsLTEgMC4xLC0xLjEgMC44LC0wLjRsOC44LDkuNWMwLjcsMC43IDEsMi4xIDAuNywzbC0zLjgsMTIuM2MtMC4yLDAuOCAtMC43LDAuOCAtMC45LC0wLjF6bTMwLjcsMTQuMWwtMjcuMywtOC40Yy0wLjksLTAuMyAtMS41LC0xLjMgLTEuMiwtMi4ybDQuNSwtMTQuOGMwLjMsLTAuOSAxLjMsLTEuNSAyLjIsLTEuMmwyNy4zLDguNGMwLjksMC4zIDEuNSwxLjMgMS4yLDIuMmwtNC41LDE0LjhjLTAuMywxIC0xLjMsMS41IC0yLjIsMS4yem0yNC4zLC0xOS45bC0xOC4zLDE3Yy0wLjcsMC43IC0xLjEsMC40IC0wLjgsLTAuNWwzLjgsLTEyLjNjMC4zLC0wLjkgMS4zLC0xLjkgMi4zLC0yLjFsMTIuNiwtMi45YzAuOSwtMC4yIDEuMSwwLjIgMC40LDAuOHptMiwtMy42bC0xNS4xLDMuNGMtMSwwLjIgLTEuOSwtMC40IC0yLjEsLTEuM2wtNi40LC0yNy45Yy0wLjIsLTEgMC40LC0xLjkgMS4zLC0yLjFsMTUuMSwtMy40YzEsLTAuMiAxLjksMC40IDIuMSwxLjNsNi40LDI3LjljMC4yLDAuOSAtMC40LDEuOSAtMS4zLDIuMXoiIGZpbGw9InVybCgjc3ltYm9sXzFfKSIvPiYjeGE7ICAgPGcgaWQ9InR5cGVfMl8iPiYjeGE7ICAgIDxnIGlkPSJzdmdfMSI+JiN4YTsgICAgIDxwYXRoIGNsYXNzPSJzdDEiIGQ9Im0xMDkuNzAzNTEsMjYuM2w4LjksLTEuMmwtNi4zLDM1LjhsLTguNywwbDYuMSwtMzQuNnptMi42LC0xNS4xbDguOSwtMS4ybC0xLjcsOS44bC04LjksMS4zbDEuNywtOS45eiIgZmlsbD0idXJsKCNTVkdJRF8xXykiIGlkPSJzdmdfMiIvPiYjeGE7ICAgICA8cGF0aCBjbGFzcz0ic3QyIiBkPSJtMTQ2LjQwMzUxLDM1LjhjMC4xLC0wLjQgMC4xLC0wLjggMC4xLC0wLjljMCwtMC45IC0wLjQsLTEuNSAtMS44LC0xLjVjLTIuMywwIC03LjIsMi4yIC0xMC41LDQuMWwtNC4xLDIzLjRsLTguNywwbDYuMSwtMzQuNWw3LjUsLTEuM2wtMC4xLDQuM2M0LjYsLTIuNSAxMC4xLC00LjQgMTQuMywtNC40YzQuOCwwIDYuNCwzLjIgNi40LDdjMCwxLjQgLTAuMSwyLjMgLTAuNCwzLjVsLTQuNSwyNS41bC04LjcsMGw0LjQsLTI1LjJ6IiBmaWxsPSJ1cmwoI1NWR0lEXzJfKSIgaWQ9InN2Z18zIi8+JiN4YTsgICAgIDxwYXRoIGNsYXNzPSJzdDMiIGQ9Im0xODMuNjAzNTEsMzIuN2wtOC4xLDBsLTUuMywyOS44Yy0xLDUuNyAtMy4xLDkuMyAtNy43LDEzLjNsLTUuNiwtNS4yYzIuOCwtMi43IDQuMSwtNS4xIDQuNywtOC45bDUuMSwtMjlsLTUuNCwwbDEuMiwtNy4xbDUuNCwwbDAuOSwtNS4xYzEuMywtNy41IDQuMywtMTAuOCAxMy4yLC0xMC44YzIuOSwwIDYuNywwLjQgMTEuMSwxLjRsOC45LC0xLjJsLTksNTAuOWwtOC43LDBsNy42LC00My4xYy0zLjUsLTAuNyAtNywtMS4xIC05LjgsLTEuMWMtMywwIC00LjIsMSAtNC42LDMuNWwtMC45LDUuNGw4LjgsMGwtMS44LDcuMnoiIGZpbGw9InVybCgjU1ZHSURfM18pIiBpZD0ic3ZnXzQiLz4mI3hhOyAgICAgPHBhdGggY2xhc3M9InN0NCIgZD0ibTIxMi4zMDM1MSw1MC43Yy0wLjEsMC41IC0wLjEsMC44IC0wLjEsMC45YzAsMC45IDAuNCwxLjUgMS44LDEuNWMyLjMsMCA3LjIsLTIuMiAxMC41LC00LjFsNCwtMjIuOGw4LjksLTEuMmwtNi4yLDM1LjlsLTcuNCwwbDAuMSwtMy43Yy00LjYsMi41IC0xMC4xLDQuNCAtMTQuMyw0LjRjLTQuOCwwIC02LjQsLTMuMiAtNi40LC03YzAsLTEuNCAwLjEsLTIuMyAwLjQsLTMuNWw0LjMsLTI0LjhsOC45LC0xLjJsLTQuNSwyNS42eiIgZmlsbD0idXJsKCNTVkdJRF80XykiIGlkPSJzdmdfNSIvPiYjeGE7ICAgICA8cGF0aCBjbGFzcz0ic3Q1IiBkPSJtMjUxLjEwMzUxLDQzLjFsLTcuNiwtMTYuNmw4LjEsLTEuNWw1LjMsMTIuNWw4LjcsLTExLjlsOS4zLDBsLTE0LjQsMTguNmw3LjcsMTYuN2wtOC44LDBsLTQuOCwtMTAuMmwtOC41LDEwLjJsLTkuMywwbDE0LjMsLTE3Ljh6IiBmaWxsPSJ1cmwoI1NWR0lEXzVfKSIgaWQ9InN2Z182Ii8+JiN4YTsgICAgIDxwYXRoIGNsYXNzPSJzdDYiIGQ9Im0zMDEuNTAzNTEsNjAuOWwtNy40LDBsMCwtMy45Yy0zLDIuNyAtNi44LDQuNiAtMTIsNC42Yy02LjEsMCAtOC4yLC0zLjMgLTguMiwtOGMwLC0xLjIgMC4xLC0yLjQgMC40LC0zLjdsMS44LC0xMC4zYzEuNiwtOSAzLjMsLTE0LjcgMTcuMSwtMTQuN2MxLjMsMCAzLjgsMC4yIDUuOCwwLjdsMi41LC0xNC4zbDguOSwtMS4ybC04LjksNTAuOHptLTMuNywtMjguMmMtMS42LC0wLjQgLTMuOSwtMC40IC01LjEsLTAuNGMtNS42LDAgLTcsMi4yIC03LjgsNi45bC0yLjIsMTIuNGMtMC4xLDAuNCAtMC4xLDAuNyAtMC4xLDAuOWMwLDEuMyAwLjksMS45IDIuNSwxLjljMy43LDAgOCwtMyA5LjgsLTUuM2wyLjksLTE2LjR6IiBmaWxsPSJ1cmwoI1NWR0lEXzZfKSIgaWQ9InN2Z183Ii8+JiN4YTsgICAgIDxwYXRoIGNsYXNzPSJzdDciIGQ9Im0zMTkuMzAzNTEsMTEuMmw4LjksLTEuMmwtMy4yLDE4YzMuOSwtMi4yIDcuNiwtMy4xIDExLjEsLTMuMWM2LjEsMCA4LjIsMy4zIDguMiw4YzAsMS4yIC0wLjEsMi40IC0wLjQsMy43bC0xLjcsMTAuM2MtMS45LDEwLjYgLTUuNSwxNC43IC0xOC4yLDE0LjdjLTMuMywwIC05LjcsLTEuMSAtMTMuMiwtMi4zbDguNSwtNDguMXptMS4xLDQyLjZjMS42LDAuMyAzLjMsMC41IDUuMSwwLjVjNS42LDAgNywtMi4zIDcuOCwtNi45bDIuMiwtMTIuNGMwLjEsLTAuNCAwLjEsLTAuNyAwLjEsLTAuOWMwLC0xLjMgLTAuOSwtMS45IC0yLjUsLTEuOWMtMi43LDAgLTYuNCwxLjIgLTkuNSwzLjNsLTMuMiwxOC4zeiIgZmlsbD0idXJsKCNTVkdJRF83XykiIGlkPSJzdmdfOCIvPiYjeGE7ICAgIDwvZz4mI3hhOyAgIDwvZz4mI3hhOyAgPC9nPiYjeGE7IDwvZz4mI3hhOzwvc3ZnPg==;" vertex="1" parent="_q4iehMltZ5T4as94G1Y-10">
          <mxGeometry x="307.5" y="150.00000000000003" width="124" height="28.84" as="geometry" />
        </mxCell>
        <mxCell id="_q4iehMltZ5T4as94G1Y-25" style="rounded=0;orthogonalLoop=1;jettySize=auto;html=1;" edge="1" parent="_q4iehMltZ5T4as94G1Y-10" source="_q4iehMltZ5T4as94G1Y-21" target="_q4iehMltZ5T4as94G1Y-16">
          <mxGeometry relative="1" as="geometry" />
        </mxCell>
        <mxCell id="_q4iehMltZ5T4as94G1Y-26" style="rounded=0;orthogonalLoop=1;jettySize=auto;html=1;" edge="1" parent="_q4iehMltZ5T4as94G1Y-10" source="_q4iehMltZ5T4as94G1Y-21" target="_q4iehMltZ5T4as94G1Y-3">
          <mxGeometry relative="1" as="geometry" />
        </mxCell>
        <mxCell id="_q4iehMltZ5T4as94G1Y-21" value="search-api" style="rounded=1;whiteSpace=wrap;html=1;absoluteArcSize=1;" vertex="1" parent="_q4iehMltZ5T4as94G1Y-10">
          <mxGeometry x="120" y="10" width="120" height="60" as="geometry" />
        </mxCell>
        <mxCell id="_q4iehMltZ5T4as94G1Y-27" style="rounded=0;orthogonalLoop=1;jettySize=auto;html=1;" edge="1" parent="_q4iehMltZ5T4as94G1Y-10" source="_q4iehMltZ5T4as94G1Y-1" target="_q4iehMltZ5T4as94G1Y-16">
          <mxGeometry relative="1" as="geometry" />
        </mxCell>
        <mxCell id="_q4iehMltZ5T4as94G1Y-28" style="rounded=0;orthogonalLoop=1;jettySize=auto;html=1;" edge="1" parent="_q4iehMltZ5T4as94G1Y-10" source="_q4iehMltZ5T4as94G1Y-1" target="_q4iehMltZ5T4as94G1Y-3">
          <mxGeometry relative="1" as="geometry" />
        </mxCell>
        <mxCell id="_q4iehMltZ5T4as94G1Y-1" value="crawler" style="rounded=1;whiteSpace=wrap;html=1;absoluteArcSize=1;" vertex="1" parent="_q4iehMltZ5T4as94G1Y-10">
          <mxGeometry x="460" y="10" width="120" height="60" as="geometry" />
        </mxCell>
        <mxCell id="_q4iehMltZ5T4as94G1Y-32" style="rounded=0;orthogonalLoop=1;jettySize=auto;html=1;" edge="1" parent="_q4iehMltZ5T4as94G1Y-10" source="_q4iehMltZ5T4as94G1Y-23" target="_q4iehMltZ5T4as94G1Y-21">
          <mxGeometry relative="1" as="geometry" />
        </mxCell>
        <mxCell id="_q4iehMltZ5T4as94G1Y-23" value="traefik - waf &amp; route" style="shape=image;verticalLabelPosition=bottom;labelBackgroundColor=default;verticalAlign=top;aspect=fixed;imageAspect=0;image=data:image/svg+xml,PHN2ZyB4bWxuczp4bGluaz0iaHR0cDovL3d3dy53My5vcmcvMTk5OS94bGluayIgeG1sbnM9Imh0dHA6Ly93d3cudzMub3JnLzIwMDAvc3ZnIiBoZWlnaHQ9IjI1MDAiIHdpZHRoPSIyMTE5IiBzdHJva2UtbGluZWpvaW49InJvdW5kIiBzdHJva2UtbGluZWNhcD0icm91bmQiIHN0cm9rZT0iIzAwMCIgZmlsbC1ydWxlPSJldmVub2RkIiBmaWxsPSIjZmZmIiB2aWV3Qm94PSItMC4xMTk5OTk5OTk5OTk5OTk2MSAtMC43OSA1Ni4xNzE5OTk5OTk5OTk5OSA2NS42MjEwMDAwMDAwMDAwMSI+PHVzZSB5PSIuNSIgeD0iLjUiIHhsaW5rOmhyZWY9IiNhIi8+PHN5bWJvbCBvdmVyZmxvdz0idmlzaWJsZSIgaWQ9ImEiPjxnIGZpbGwtcnVsZT0ibm9uemVybyIgc3Ryb2tlPSJub25lIj48cGF0aCBmaWxsPSIjYzk3ODFmIiBkPSJNOC40NjcgMjUuMTUyczQuNi0zLjk5OCAxOC4yMTItMy45OThjMTIuNDg4IDAgMTUuOTk4IDIuODMgMTkuNTYyIDRsLTE4LjU5NiA5LjA3NXoiLz48cGF0aCBmaWxsPSIjZjZkMmEyIiBkPSJNNi41MjYgMzcuMTg3Yy4wODQgMS43MzUgMS44Mi45MzIgMi42MDUuNC43NDYtLjUxNS45NjQtLjA4NyAxLjAzLTEuMTAzbC4wODItMi4wMDZjLTEuMTMtLjEwMi0yLjM1NS4xNjYtMy4yOC44MzctLjQ3OC4zNDgtMS4zNyAxLjQ1LS40MzUgMS44ODIiLz48cGF0aCBmaWxsPSIjYzZiMTk4IiBkPSJNNi41MjYgMzcuMTg3Yy4yNTMtLjA5My41Mi0uMTYuNjktLjM5Ii8+PHBhdGggZmlsbD0iIzM3YWJjOCIgZD0iTTEwLjUzNSAxNi41MjRjLTYuNjUtMS44Ny0xLjcwNS0xMC4zMTQgMy42MzQtNi44NHptMjkuNTQtNy40NzRjNS4yNjMtMy42OTIgMTAuMDIgNC42MzcgMy45MDIgNi43MzN6Ii8+PHBhdGggZmlsbD0iI2Y2ZDJhMiIgZD0iTTQxLjIxIDU4LjUzNGMxLjMzNy44MjYgMy43OCAzLjMyNCAxLjc3NSA0LjUzNS0xLjkyNyAxLjc2Mi0zLjAwNS0xLjkzNC00LjY5Ni0yLjQ0Ni43MjgtLjk4OCAxLjY1LTEuODg4IDIuOTItMi4wOXptLTIzLjg4MyAyLjgyM2MtMS41Ny4yNDItMi40NTIgMS42NTYtMy43NiAyLjM3NC0xLjIzMy43MzQtMS43MDQtLjIzNS0xLjgxNS0uNDMyLS4xOTYtLjA4OC0uMTc3LjA4Mi0uNDc1LS4yMTgtMS4xNDMtMS44IDEuMTktMy4xMTggMi40MDYtNC4wMTIgMS42OTItLjM0MiAyLjc1MyAxLjEyMyAzLjY0NSAyLjI4OHoiLz48cGF0aCBmaWxsPSIjMDc3ZTkxIiBkPSJNMTAuODEzIDE0LjJjLS44NzctLjQ2LTEuNTItMS4wOTItLjk4NC0yLjEwNi40OTctLjkzOCAxLjQyLS44MzYgMi4yOTctLjM3M3ptMzEuNzgtLjg4Yy44NzctLjQ2MyAxLjUyLTEuMDkzLjk4NC0yLjEwNi0uNDk3LS45MzgtMS40Mi0uODM2LTIuMjk3LS4zNzN6Ii8+PHBhdGggZmlsbD0iI2Y2ZDJhMiIgZD0iTTQ4LjYzIDM2Ljk2NmMtLjA4NCAxLjczNC0xLjgyLjkzMi0yLjYwNS40LS43NDYtLjUxNS0uOTY0LS4wODctMS4wMy0xLjEwM2wtLjA4Mi0yLjAwNmMxLjEzLS4xMDIgMi4zNTUuMTY2IDMuMjguODM3LjQ3OC4zNDggMS4zNyAxLjQ1LjQzNSAxLjg4MiIvPjxwYXRoIGZpbGw9IiNjNmIxOTgiIGQ9Ik00OC42MyAzNi45NjdjLS4yNTMtLjA5My0uNTItLjE2LS42OS0uMzg4Ii8+PHBhdGggZmlsbD0iIzM3YWJjOCIgZD0iTTI2LjkxMiA1LjU0YzYuNjU3IDAgMTIuODk3Ljk1IDE2LjE1IDcuMzM3IDIuOTIgNy4xNiAxLjg4MiAxNC44NzggMi4zMjcgMjIuNDQ0LjM4MyA2LjQ5NiAxLjIzIDE0LTEuNzg4IDIwLjAyMi0zLjE3NSA2LjMzNC0xMS4xMSA3LjkyNy0xNy42NDMgNy42OTMtNS4xMzQtLjE4My0xMS4zMzUtMS44NTYtMTQuMjMyLTYuNTQtMy40LTUuNDk1LTEuOC0xMy42NjYtMS41NDMtMTkuNzguMjkyLTcuMjQzLTEuOTY0LTE0LjUwNy40MTgtMjEuNTk1IDIuNDcyLTcuMzUyIDkuMTM4LTkuMDE0IDE2LjMxMi05LjU4Ii8+PHBhdGggZD0iTTI4LjA4NyAxNC40NjVjMS4xOTUgNi45MzggMTIuNTUgNS4xMDQgMTAuOTItMS44OS0xLjQ2Mi02LjI3NS0xMS4zMTctNC41MzgtMTAuOTIgMS44OW0tMTMuNTcgMS4xMjJjMS41NSA2LjA0IDExLjIzMyA0LjQ5NCAxMC44NjgtMS41NjUtLjQzNS03LjI1Ny0xMi4zNS01Ljg1Ni0xMC44NjggMS41NjVtMTUuNzc1IDYuOTY2Yy4wMDUuOTI3LjIxNyAxLjgzMy4wMzQgMi44NzQtLjIzLjQzNS0uNjgzLjQ4LTEuMDczLjY1N2ExLjU4IDEuNTggMCAwIDEtMS4yMDktLjk0MmMtLjE0LTEuMDk1LjA1Mi0yLjE1Ni4wODctMy4yNXoiLz48cGF0aCBmaWxsPSIjMDAwIiBkPSJNMTUuNTUzIDE0LjYwMmMwLS45OC43My0xLjc3IDEuNjM1LTEuNzdzMS42MzUuNzkgMS42MzUgMS43Ny0uNzMgMS43Ny0xLjYzNSAxLjc3LTEuNjM1LS43OS0xLjYzNS0xLjc3eiIvPjxwYXRoIGQ9Ik0xNy41NDYgMTVjMC0uMjUuMTcyLS40NS4zODYtLjQ1cy4zODUuMi4zODUuNDUtLjE3Mi40NS0uMzg1LjQ1LS4zODYtLjItLjM4Ni0uNDV6Ii8+PHBhdGggZmlsbD0iIzAwMCIgZD0iTTI5LjI4IDE0LjE2MmMwLS45OC43MTctMS43NyAxLjYwOC0xLjc3czEuNjA4Ljc5IDEuNjA4IDEuNzctLjcxNyAxLjc3LTEuNjA4IDEuNzctMS42MDgtLjc5LTEuNjA4LTEuNzd6Ii8+PHBhdGggZD0iTTMxLjI0IDE0LjU2YzAtLjI1LjE3LS40NS4zOC0uNDVzLjM4LjIuMzguNDUtLjE3LjQ1LS4zOC40NS0uMzgtLjItLjM4LS40NXptLTUuNjIgOC4xMzJjLS43MTMgMS43MjcuMzk4IDUuMTggMi4zMzQgMi42My0uMTQtMS4wOTUuMDUyLTIuMTU2LjA4Ni0zLjI1eiIvPjxwYXRoIGZpbGw9IiNmNmQyYTIiIGQ9Ik0yNS41MDYgMTkuMzY3Yy0xLjMzLjExMy0yLjQxNyAxLjY5Mi0xLjcyNSAyLjk0Mi45MTYgMS42NTIgMi45Ni0uMTQ2IDQuMjMyLjAyMiAxLjQ2NS4wMyAyLjY2NSAxLjU0NyAzLjg0Mi4yNzQgMS4zMS0xLjQxMy0uNTYzLTIuNzk0LTIuMDI2LTMuNHoiLz48cGF0aCBmaWxsPSIjZWY5MzI1IiBkPSJNOC40NjcgMjUuMTUybC4zOTIgNi41MTdjLS4wMyAxLjk2MyAxLjg1NC43MjMgMS45NTIgMy44MXMtMS4xNCAyLjUwMi0xLjc5NCA0LjAxMy0xLjA5NiA4LjU4Ny0xLjA5NiA4LjU4Ny42NyAxLjMyMiAyLjc2IDIuNTEzIDUuNDU3IDEuODYgOC4zNjcgMS43MjggNC45OTItLjc1NSA1LjUxMy0xLjEgMS4zODMtMS40MzQgMS43MDgtMi4yNzcgMS4wMDMtNy43ODUuOTU2LTExLjc1Ny0uNzA1LTcuNjM3LS43MDUtNy42Mzd6Ii8+PHBhdGggZmlsbD0iI2U1ZTVlNSIgZD0iTTI2LjkxNCA0NC40OTNjLTguNTc2Ljk1Ni0xOC41MjctMS42ODctMTguNTI3LTEuNjg3cy4xNDYtMi42OC44LTMuNjI0YzguOTIgMi43NiAxNy45MTggMS44ODUgMTcuOTE4IDEuODg1LjEzMyAxLjI1LjA0IDIuMjQ2LS4xOCAzLjQyNnptLTEuMDc3IDUuMjgzYy04LjU3Ni45NTYtMTcuOTEzLTEuNzkzLTE3LjkxMy0xLjc5M3MtLjAzLTIuNTc1LjMxLTMuNzA2YzguOTIgMi43NiAxOC40NDYgMi4wNzIgMTguNDQ2IDIuMDcyLS4wOCAxLjM2LS4yNzIgMi42OTYtLjg0NCAzLjQyNnoiLz48cGF0aCBmaWxsPSIjZWY5MzI1IiBkPSJNNDYuMjQyIDI1LjE1MmwtLjAzIDYuNTE3Yy4wMyAxLjk2My0xLjE0LjcyMy0xLjI0IDMuODFzMS4xNTUgMi41MDIgMS44MTYgNC4wMTMgMS4xIDguNTg3IDEuMSA4LjU4Ny0uNjc4IDEuMzIyLTIuNzk2IDIuNTEzLTUuNTIzIDEuODYtOC40NzIgMS43MjgtNS4wNTUtLjc1NS01LjU4Mi0xLjEtMS40LTEuNDM0LTEuNzMtMi4yNzctMS4wMTYtNy43ODUtLjk2Ny0xMS43NTcuNzEzLTcuNjM3LjcxMy03LjYzN3oiLz48cGF0aCBmaWxsPSIjZTVlNWU1IiBkPSJNMjguNjY3IDQ0LjQ5M2M4LjY4NC45NTYgMTguNzYyLTEuNjg3IDE4Ljc2Mi0xLjY4N3MtLjE0OC0yLjY4LS44LTMuNjI0Yy05LjAzMiAyLjc2LTE4LjE0MyAxLjg4NS0xOC4xNDMgMS44ODUtLjEzNSAxLjI1LS4wNCAyLjI0Ni4xODMgMy40MjZ6bTEuMDkzIDUuMjgzYzguNjg0Ljk1NiAxOC4xMzgtMS43OTMgMTguMTM4LTEuNzkzcy4wMy0yLjU3NS0uMzE1LTMuNzA2Yy05LjAzIDIuNzYtMTguNjc4IDIuMDcyLTE4LjY3OCAyLjA3Mi4wOCAxLjM2LjI3NSAyLjY5Ni44NTUgMy40MjZ6Ii8+PHBhdGggZmlsbD0iI2QyZTI2MSIgZD0iTTQ5LjcwNSAzMy41MDRjLS4yNy41MS0uODA0Ljc1NC0xLjE5My41NDhsLS4zMTItLjE2NWMtLjM5LS4yMDYtLjQ4Ni0uNzgzLS4yMTYtMS4yOTRsNi4wNzctMTEuNDU1Yy4yNy0uNTEuODA0LS43NTQgMS4xOTMtLjU0OGwuMzEyLjE2NWMuMzkuMjA2LjQ4Ni43ODMuMjE2IDEuMjk0eiIvPjxwYXRoIGZpbGw9IiMwMDAiIGQ9Ik00Ni44MzYgMzguOTE0Yy0uMTU3LjI5Ni0uNi4zNy0uOTkuMTY0bC0uMzEyLS4xNjVjLS4zOS0uMjA2LS41NzctLjYxMy0uNDItLjkxbDIuODUtNS4zNzRjLjE1Ny0uMjk2LjYtLjM3Ljk5LS4xNjRsLjMxMi4xNjVjLjM5LjIwNi41NzcuNjEzLjQyLjkxeiIvPjxwYXRoIGZpbGw9IiM5YjliOWIiIGQ9Ik00OS4zNyAzMi40MzVsLS4zMTItLjE2NWMtLjM5LS4yMDYtLjc4Ny0uMjE3LS44OS0uMDI1bC0uMTgyLjM0M2MuMTAyLS4xOTIuNS0uMTguODkuMDI1bC4zMTIuMTY1Yy4zOS4yMDYuNjIyLjUyOC41Mi43MmwuMTgyLS4zNDNjLjEwMi0uMTkyLS4xMy0uNTE1LS41Mi0uNzJ6Ii8+PHBhdGggZmlsbD0iI2Y2ZDJhMiIgZD0iTTQ1LjU1IDM1LjA3NmMuMi0uNTM3LjkyLS43NiAxLjYxNC0uNTAyczEuMDkzLjkuODkzIDEuNDM1LS45Mi43Ni0xLjYxNC41MDItMS4wOTMtLjktLjg5My0xLjQzNXoiLz48cGF0aCBmaWxsPSIjZDJlMjYxIiBkPSJNNS42NyAzMy42ODdjLjI0Ni41Mi43Ny44IDEuMTY3LjYwMmwuMzItLjE1Yy4zOTgtLjE4OC41Mi0uNzYyLjI3NS0xLjI4MmwtNS41NDUtMTEuNzJjLS4yNDYtLjUyLS43NjgtLjgtMS4xNjctLjYwMmwtLjMyLjE1Yy0uMzk4LjE4OC0uNTIuNzYyLS4yNzUgMS4yODJ6Ii8+PHBhdGggZmlsbD0iIzAwMCIgZD0iTTguMyAzOS4yMjVjLjE0My4zMDMuNTgzLjM5Ny45NzguMjFsLjMyLS4xNWMuMzk4LS4xODguNjA0LS41ODYuNDYtLjg5bC0yLjYtNS40OTdjLS4xNDMtLjMwMy0uNTgzLS4zOTYtLjk3OC0uMjFsLS4zMi4xNWMtLjM5OC4xODgtLjYwNC41ODYtLjQ2Ljg5eiIvPjxwYXRoIGZpbGw9IiM5YjliOWIiIGQ9Ik02LjA1NSAzMi42MzdsLjMyLS4xNWMuMzk4LS4xODguNzk2LS4xOC44OS4wMTZsLjE2Ni4zNTJjLS4wOTMtLjE5Ny0uNDktLjIwMy0uODktLjAxNmwtLjMyLjE1Yy0uMzk4LjE4OC0uNjQ2LjUtLjU1My42OTZsLS4xNjYtLjM1MmMtLjA5My0uMTk2LjE1Mi0uNTA4LjU1My0uNjk2eiIvPjxwYXRoIGZpbGw9IiNmNmQyYTIiIGQ9Ik0xMCAzNS4yMjZjLjIuNTM3LS4yIDEuMTc3LS44OTMgMS40MzVzLTEuNDE1LjAzNS0xLjYxNC0uNTAyLjItMS4xNzcuODkzLTEuNDM1UzkuOCAzNC42OSAxMCAzNS4yMjZ6Ii8+PHBhdGggZmlsbD0iIzk2MDAwMCIgZD0iTTExLjMxNiAxOS4xMjZjLS4yNjQuNDgtLjg4OC42NDQtMS4zOTMuMzY3bC0uNTgtLjMyYy0uNTA1LS4yNzctLjctLjg5LS40MzYtMS4zN0wxNC45NSA2LjgyNWMuMjY0LS40OC44ODgtLjY0NCAxLjM5My0uMzY3bC41OC4zMmMuNTA1LjI3Ny42MzUuNzk2LjQzNiAxLjM3LTIuMTE4IDYuMS02LjA0NSAxMC45NzgtNi4wNDUgMTAuOTc4eiIvPjxwYXRoIGZpbGw9IiM1OTU5NTkiIGQ9Ik0xMi45MTUgMTIuODU2YzEuODM4LTMuMzM4IDMuMDQ0LTYuMiAyLjc1OC02LjUzNWwuMDA2LS4wMTItLjAyMi0uMDEtLjAwMy0uMDAyQzEyLjgyOCA0Ljc2NyA5LjAyNyA2LjI4IDcuMTUgOS42OXMtMS4xMjIgNy40MjYgMS42ODQgOC45OWgtLjAwMWMuMDEyLjAwNC4wMTguMDEuMDI2LjAxNGwuMDA3LS4wMTJjLjQzLjA2OCAyLjItMi40ODggNC4wNDgtNS44MjZ6Ii8+PHBhdGggZmlsbD0iIzk2MDAwMCIgZD0iTTQzLjIwNyAxOS4xNWMuMjUuNDg3Ljg3LjY3IDEuMzgyLjQwN2wuNi0uMzA0Yy41MTMtLjI2My43MjYtLjg3LjQ3NS0xLjM1OEwzOS45MyA2Ljc0NmMtLjI1LS40ODctLjg3LS42Ny0xLjM4Mi0uNDA3bC0uNi4zMDRjLS41MTMuMjYzLS42NTguNzc4LS40NzUgMS4zNTggMS45NCA2LjE2IDUuNzI1IDExLjE0OCA1LjcyNSAxMS4xNDh6Ii8+PHBhdGggZmlsbD0iIzU5NTk1OSIgZD0iTTQxLjc5IDEyLjgzOGMtMS43NC0zLjQtMi44NjUtNi4yOTUtMi41NjgtNi42MTJsLS4wMDctLjAxMmMuMDA4LS4wMDQuMDE3LS4wMDYuMDI0LS4wMWwuMDAzLS4wMDFjMi44Ny0xLjQ0NiA2LjYyMy4xNzQgOC40IDMuNjRzLjkwNyA3LjQ1NC0xLjk0MyA4LjkzNnYuMDAyYy0uMDEyLjAwNC0uMDIuMDEtLjAyNy4wMTRsLS4wMDctLjAxMmMtLjQzLjA1Ni0yLjEzOC0yLjU1LTMuODgtNS45NHoiLz48cGF0aCBmaWxsPSIjMzUzNTM1IiBkPSJNNDcuNDU3IDExLjQwNnMtMi4xMTUtNS4zLTQuNTY4LTguMDg3LTI2LjQ1My0zLjc1LTMwLjM5NCAwLTUuNDI3IDguMDg4LTUuNDI3IDguMDg4di0xLjE3NFM4Ljg5IDUuMDggMTIuNDk1IDIuMTQ1czI3LjI4OC0yLjc4MyAzMC4zNDQgMCA0LjYxOCA4LjA4NyA0LjYxOCA4LjA4N3oiLz48cGF0aCBmaWxsPSIjOTYwMDAwIiBkPSJNNDguMTY1IDkuNjM4Yy41Ljk5Ni41OTMgMS45NjcuMTg1IDIuMTc2cy0xLjE0OC0uNDI0LTEuNjYtMS40Mi0uNTkzLTEuOTY2LS4xODUtMi4xNzYgMS4xNDguNDI0IDEuNjYgMS40MnpNNi42MzggOS40OGMuNTQtLjk4IDEuMjk3LTEuNTkzIDEuNy0xLjM3MnMuMjkyIDEuMi0uMjQ4IDIuMTctMS4yOTcgMS41OTMtMS43IDEuMzctLjI5Mi0xLjIuMjQ4LTIuMTd6Ii8+PHBhdGggb3BhY2l0eT0iLjYiIGQ9Ik0zOC40MTQgMTAuMjlIMTYuMDNjLTQuMDIgMC00LjAwNSAxMC42NjYtLjIzMiAxMS4yOGw3LjgwNS0uNWMuOTQ0IDAgMi44MjctMy42NSAzLjE4LTMuOTM2czEuNTE4LS4zMjIgMS45NzYgMCAxLjUgMy41NjggMi40NDQgMy41NjhsNy44MDUuODdjMy42NDUtMS42NzUgMi43MjYtMTEuMjgtLjU4Ny0xMS4yOHoiLz48cGF0aCBvcGFjaXR5PSIuNSIgZD0iTTIxLjk3MiAxMi40OTVsLTguNDMtLjAxNWMtLjM1MyAxLjE1Ny0uNzQ3IDIuNjItLjU1MiA0LjA0NGw5LjAzMy4wMWMxLjc4IDAgMy4yOC4zMzYgNC42NzQuN2EuNzkuNzkgMCAwIDEgLjA4Ni0uMDk0Yy4zNTMtLjI4NyAxLjUxNy0uMzIyIDEuOTc2IDAgLjExOC4wODMuMjc3LjM2NC40NjIuNzMyYTEwLjkyIDEwLjkyIDAgMCAwIDIuMTY0LjI2Mmw5Ljc4Mi4wMWMuMzg3LTEuMjkyLjEwMi0yLjY3OC4wMTUtMy45OC0yLjk2OCAwLTcuNjg2LS4wNjctOS45NDgtLjA2Ny0zLjE4NyAwLTUuOTctMS41MjYtOS4yNTgtMS42eiIvPjxwYXRoIGZpbGw9IiMwMDAiIGQ9Ik0yNS4zMzggMTkuMjk3Yy0uMDk4LTIuMyA0LjI5NC0yLjU4OCA0LjgxMy0uNjYycy00LjU5NiAyLjM3LTQuODEyLjY2MmMtLjE3My0xLjM2IDAgMCAwIDB6Ii8+PC9nPjwvc3ltYm9sPjwvc3ZnPg==;" vertex="1" parent="_q4iehMltZ5T4as94G1Y-10">
          <mxGeometry x="109.99999999999999" y="150" width="67.79" height="80" as="geometry" />
        </mxCell>
        <mxCell id="_q4iehMltZ5T4as94G1Y-30" style="rounded=0;orthogonalLoop=1;jettySize=auto;html=1;" edge="1" parent="_q4iehMltZ5T4as94G1Y-10" source="_q4iehMltZ5T4as94G1Y-1" target="_q4iehMltZ5T4as94G1Y-19">
          <mxGeometry relative="1" as="geometry">
            <mxPoint x="480" y="76" as="sourcePoint" />
            <mxPoint x="349" y="111" as="targetPoint" />
          </mxGeometry>
        </mxCell>
        <mxCell id="_q4iehMltZ5T4as94G1Y-29" style="rounded=0;orthogonalLoop=1;jettySize=auto;html=1;" edge="1" parent="_q4iehMltZ5T4as94G1Y-10" source="_q4iehMltZ5T4as94G1Y-21" target="_q4iehMltZ5T4as94G1Y-19">
          <mxGeometry relative="1" as="geometry">
            <mxPoint x="470" y="66" as="sourcePoint" />
            <mxPoint x="339" y="101" as="targetPoint" />
          </mxGeometry>
        </mxCell>
        <mxCell id="_q4iehMltZ5T4as94G1Y-33" style="rounded=0;orthogonalLoop=1;jettySize=auto;html=1;edgeStyle=orthogonalEdgeStyle;" edge="1" parent="1" source="_q4iehMltZ5T4as94G1Y-23" target="_q4iehMltZ5T4as94G1Y-41">
          <mxGeometry relative="1" as="geometry">
            <mxPoint x="240" y="-160" as="targetPoint" />
            <Array as="points">
              <mxPoint x="240" y="-160" />
            </Array>
          </mxGeometry>
        </mxCell>
        <mxCell id="_q4iehMltZ5T4as94G1Y-34" value="redirect" style="edgeLabel;html=1;align=center;verticalAlign=middle;resizable=0;points=[];" vertex="1" connectable="0" parent="_q4iehMltZ5T4as94G1Y-33">
          <mxGeometry x="-0.673" y="1" relative="1" as="geometry">
            <mxPoint x="-7" y="-1" as="offset" />
          </mxGeometry>
        </mxCell>
        <mxCell id="_q4iehMltZ5T4as94G1Y-39" style="edgeStyle=orthogonalEdgeStyle;rounded=0;orthogonalLoop=1;jettySize=auto;html=1;" edge="1" parent="1" source="_q4iehMltZ5T4as94G1Y-40" target="_q4iehMltZ5T4as94G1Y-23">
          <mxGeometry relative="1" as="geometry">
            <mxPoint x="280" y="-255" as="sourcePoint" />
            <Array as="points">
              <mxPoint x="474" y="-260" />
            </Array>
          </mxGeometry>
        </mxCell>
        <mxCell id="_q4iehMltZ5T4as94G1Y-40" value="api.nerinyan.moe/**" style="rounded=1;whiteSpace=wrap;html=1;" vertex="1" parent="1">
          <mxGeometry x="120" y="-280" width="160" height="40" as="geometry" />
        </mxCell>
        <mxCell id="_q4iehMltZ5T4as94G1Y-42" style="edgeStyle=orthogonalEdgeStyle;rounded=0;orthogonalLoop=1;jettySize=auto;html=1;" edge="1" parent="1" source="_q4iehMltZ5T4as94G1Y-41" target="_q4iehMltZ5T4as94G1Y-20">
          <mxGeometry relative="1" as="geometry">
            <Array as="points">
              <mxPoint x="220" y="-20" />
              <mxPoint x="220" y="-20" />
            </Array>
          </mxGeometry>
        </mxCell>
        <mxCell id="_q4iehMltZ5T4as94G1Y-41" value="dl.nerinyan.moe/??" style="rounded=1;whiteSpace=wrap;html=1;" vertex="1" parent="1">
          <mxGeometry x="120" y="-90" width="160" height="40" as="geometry" />
        </mxCell>
      </root>
    </mxGraphModel>
  </diagram>
</mxfile>
